PathFileType	4	(X/Y/Z)	C:/Users/beibeiliu/ov580/test_trc/User3\sequence.4_training_dense_left.trc
DataRate	CameraRate	NumFrames	NumMarkers	Units	OrigDataRate	OrigDataStartFrame	OrigNumFrames
120	120	13	19	mm	120	1	93
Frame#	Time	ThumbCMC			ThumbMCP			ThumbIP			ThumbTip			IndexMCP			IndexPIP			IndexTip			MiddleMCP			MiddlePIP			MiddleTip			RingMCP			RingPIP			RingTip			PinkyMCP			PinkyPIP			PinkyTip			BackHand1			BackHand2			BackHand3	
		X0	Y0	Z0	X1	Y1	Z1	X2	Y2	Z2	X3	Y3	Z3	X4	Y4	Z4	X5	Y5	Z5	X6	Y6	Z6	X7	Y7	Z7	X8	Y8	Z8	X9	Y9	Z9	X10	Y10	Z10	X11	Y11	Z11	X12	Y12	Z12	X13	Y13	Z13	X14	Y14	Z14	X15	Y15	Z15	X16	Y16	Z16	X17	Y17	Z17	X18	Y18	Z18	
0	0	-131.36	-15.2902	7.66263	-121.715	-21.6106	-19.7676	-112.273	-25.1903	-49.5397	-108.873	-29.6441	-73.8004	-144.41	-9.60563	-71.1248	-141.305	-14.0851	-95.474	-141.69	-14.6237	-125.137	-160.937	-5.84181	-79.7708	-159.712	-9.7108	-105.984	-158.446	-13.9848	-136.413	-177.526	-7.97811	-74.1431	-177.487	-9.64993	-93.7258	-178.125	-12.5363	-119.897	-200.075	-8.7048	-57.7353	-199.804	-10.2966	-75.3753	-195.786	-9.08121	-99.0487	-182.049	10.8017	-26.1393	-184.666	17.8147	7.68382	-151.292	10.996	-9.34099	
1	0.00833333	-133.237	-14.8065	5.4264	-121.126	-19.9065	-21.0722	-117.952	-24.0048	-48.9804	-110.674	-29.5822	-73.6468	-145.471	-8.37221	-72.4924	-143.915	-11.9325	-99.4468	-144.513	-13.8656	-125.859	-160.511	-5.13435	-82.3246	-159.242	-8.68844	-103.625	-159.114	-13.2734	-136.731	-182.473	-5.60647	-72.9523	-177.085	-9.2573	-94.3018	-177.591	-11.4576	-125.258	-199.002	-9.21617	-53.5698	-199.369	-9.08918	-80.6737	-198.924	-6.82964	-98.5572	-184.916	11.0095	-22.2744	-183.76	18.7667	5.01239	-150.826	10.498	-10.9025	
2	0.0166667	-134.169	-15.5487	7.58454	-123.252	-20.6744	-17.844	-115.882	-24.4054	-52.2519	-112.806	-29.9882	-68.913	-141.751	-9.34665	-76.0818	-144.627	-12.3669	-96.7627	-140.857	-13.6819	-121.721	-163.788	-3.83042	-78.7835	-160.361	-8.8232	-104.477	-156.838	-13.2262	-134.52	-178.609	-6.10572	-69.8239	-177.956	-9.7288	-98.4995	-179.651	-12.077	-124.11	-200.581	-7.74484	-54.8973	-200.877	-9.50755	-78.198	-198.464	-9.27645	-98.4253	-186.356	11.6977	-22.4967	-184.27	16.9208	5.47656	-153.388	10.8247	-7.67597	
3	0.025	-132.03	-14.3679	3.52105	-125.222	-19.9067	-20.106	-117.616	-24.4147	-49.2603	-112.003	-30.5355	-67.108	-145.368	-8.84361	-74.4606	-141.704	-11.6432	-100	-147.072	-13.501	-119.622	-162.569	-4.04094	-76.6608	-161.651	-8.63621	-106.034	-160.692	-13.0835	-134.876	-178.917	-6.3832	-71.8586	-179.967	-9.5431	-96.5892	-178.858	-12.0489	-118.251	-197.763	-9.66622	-51.7435	-197.271	-8.91756	-75.9156	-199.145	-6.51146	-97.2426	-185.649	10.009	-24.5715	-189.041	17.5271	4.81068	-152.809	10.9391	-10.0929	
4	0.0333333	-137.363	-15.9156	8.00006	-124.986	-20.3402	-21.1904	-115.452	-25.8507	-47.7456	-110.466	-31.3803	-68.4749	-143.187	-8.73503	-70.7677	-143.64	-11.49	-94.266	-143.169	-13.0697	-119.362	-161.138	-4.4335	-81.6031	-160.082	-10.3021	-107.489	-159.329	-13.2964	-132.612	-184.938	-7.4346	-71.0361	-179.58	-10.2165	-97.1977	-181.55	-13.3833	-122.292	-203.249	-9.02535	-55.0498	-197.521	-10.3449	-73.7868	-199.842	-6.87388	-96.9539	-187.287	11.1273	-23.5649	-184.314	16.7329	4.06259	-154.763	9.1442	-9.40828	
5	0.0416667	-137.331	-14.412	3.56358	-126.238	-19.4406	-20.5009	-118.845	-23.8322	-50.8826	-110.638	-30.8434	-69.9879	-142.945	-8.3384	-70.1106	-147.757	-11.4229	-98.3766	-144.753	-12.9549	-119.724	-166.027	-4.103	-80.955	-161.593	-8.51067	-105.167	-163.316	-13.0083	-134.362	-186.055	-6.63706	-71.5141	-183.481	-9.82285	-97.533	-184.116	-12.7508	-119.619	-201.565	-7.7171	-54.192	-199.01	-9.73268	-72.3692	-201.39	-8.79373	-96.9744	-184.496	11.8246	-20.2908	-187.101	17.4845	5.82249	-151.867	9.88256	-8.43458	
6	0.05	-134.89	-13.6242	3.75721	-123.972	-19.1206	-21.8173	-119.529	-25.5399	-46.8003	-113.48	-29.968	-68.6306	-147.897	-7.66875	-74.7026	-144.004	-11.3274	-94.9556	-147.327	-12.4962	-120.002	-167.25	-3.5768	-81.6184	-161.897	-8.12951	-102.896	-161.439	-11.585	-136.12	-181.916	-6.25167	-68.7477	-182.818	-9.22466	-94.491	-180.091	-11.3041	-123.009	-204.114	-7.32303	-55.2221	-200.757	-8.95724	-78.5124	-201.105	-7.69663	-98.461	-183.965	10.2269	-19.7028	-188.706	18.5214	7.45032	-155.105	12.614	-7.50762	
7	0.0583333	-134.924	-13.266	7.948	-124.48	-19.7896	-19.2239	-116.424	-23.6229	-51.3157	-110.118	-30.1771	-69.2561	-146.893	-6.7352	-74.0742	-144.385	-11.3174	-100.204	-148.554	-11.8466	-120.441	-165.839	-3.61986	-81.5852	-163.41	-8.14765	-104.226	-158.591	-12.9244	-138.962	-181.895	-5.6297	-70.2888	-185.558	-8.5818	-95.5494	-183.662	-11.3285	-120.041	-203.271	-6.15074	-57.4603	-200.933	-8.93034	-74.9183	-200.46	-8.27547	-101.425	-189.653	11.5607	-20.2408	-188.914	18.4007	5.2339	-152.405	13.416	-8.97663	
8	0.0666667	-135.924	-14.1573	4.54265	-126.42	-19.7076	-22.3485	-120.744	-24.3174	-49.3586	-113.775	-29.4602	-73.4094	-146.749	-7.1725	-72.2121	-146.017	-11.0676	-101.178	-144.259	-13.4788	-126.102	-165.647	-3.36888	-78.627	-166.276	-8.31464	-108.316	-161.789	-13.2794	-136.865	-184.049	-5.72121	-72.566	-185.3	-8.62469	-95.3769	-180.633	-12.2453	-122.751	-205.197	-7.5029	-53.377	-201.547	-9.25479	-74.0694	-202.234	-7.9921	-99.6306	-187.367	9.97191	-22.2681	-189.943	17.6636	7.80624	-154.921	11.0121	-8.22041	
9	0.075	-138.371	-14.5902	6.12109	-122.783	-20.5082	-22.3946	-116.193	-25.27	-48.7573	-116.262	-31.5135	-69.6874	-146.314	-8.46549	-73.7491	-148.315	-11.2893	-96.3587	-148.093	-12.7591	-122.969	-164.558	-4.22777	-81.153	-162.51	-8.75846	-106.062	-161.514	-13.8471	-135.405	-181.129	-6.41855	-73.4646	-186.657	-8.41846	-93.973	-183.072	-12.9112	-121.201	-201.478	-9.07825	-51.71	-202.514	-9.5039	-77.1761	-201.018	-9.44776	-98.5745	-190.407	10.5434	-22.0314	-189.82	17.5748	3.36689	-154.258	10.8894	-7.82168	
10	0.0833333	-136.577	-13.6133	4.05508	-125.055	-19.7873	-21.3725	-118.926	-25.1289	-50.453	-113.409	-30.6546	-72.1382	-149.19	-9.11928	-74.5553	-146.022	-12.3202	-97.8551	-149.293	-13.8003	-125.229	-165.949	-4.81084	-82.9652	-163.525	-9.87746	-105.092	-165.091	-13.8753	-135.395	-188.056	-6.86346	-72.3289	-186.24	-9.11488	-94.4326	-182.376	-12.3373	-122.684	-201.777	-9.59366	-52.4636	-202.083	-9.35692	-76.6086	-201.428	-10.0199	-98.1896	-190.521	10.3322	-21.9717	-189.669	16.1012	2.30166	-156.586	11.7227	-9.39754	
11	0.0916667	-140.471	-14.4348	6.52429	-122.978	-19.9076	-20.3996	-117.208	-24.4179	-49.5116	-116.925	-29.8776	-70.0932	-147.93	-8.57624	-75.3778	-146.697	-12.0636	-100.412	-149.256	-13.263	-121.545	-166.272	-3.96368	-80.1384	-165.84	-8.13045	-107.469	-163.404	-12.6437	-139.243	-187.072	-6.35242	-70.4993	-183.431	-9.42394	-93.8614	-185.24	-11.5765	-119.724	-199.627	-8.03904	-57.4057	-201.272	-9.9279	-74.5246	-204.003	-8.63844	-100.619	-190.33	12.2346	-24.5165	-192.221	18.5611	3.66709	-154.227	9.83805	-10.9548	
12	0.1	-141.276	-13.0476	2.56623	-130.009	-20.2567	-21.1815	-118.198	-25.359	-49.872	-114.098	-29.7361	-70.6148	-147.643	-8.8938	-76.4867	-145.102	-12.3504	-99.5217	-148.193	-13.6565	-120.572	-164.75	-4.61059	-81.9085	-165.689	-8.80633	-108.715	-164.944	-12.0535	-135.333	-188.61	-5.77856	-72.2206	-182.396	-9.54588	-96.9399	-184.618	-12.381	-121.419	-205.009	-8.69641	-54.1649	-203.85	-10.07	-74.261	-202.587	-8.22667	-100.884	-186.527	9.24729	-25.4374	-189.796	17.7076	6.04235	-156.666	10.0182	-8.58427	
